<?xml version="1.0" encoding="utf-8"?>
<!-- Generator: Adobe Illustrator 19.2.1, SVG Export Plug-In . SVG Version: 6.00 Build 0)  -->
<!DOCTYPE svg PUBLIC "-//W3C//DTD SVG 1.1//EN" "http://www.w3.org/Graphics/SVG/1.1/DTD/svg11.dtd">
<svg version="1.1" id="Layer_1" xmlns="http://www.w3.org/2000/svg" xmlns:xlink="http://www.w3.org/1999/xlink" x="0px" y="0px"
	 viewBox="0 0 24 24" style="enable-background:new 0 0 24 24;" xml:space="preserve">
<style type="text/css">
	.st0{fill:#FFFFFF;}
</style>
<path class="st0" d="M24,22.5c0,0.8-0.7,1.5-1.5,1.5h-21C0.7,24,0,23.3,0,22.5v-21C0,0.7,0.7,0,1.5,0h21C23.3,0,24,0.7,24,1.5V22.5z
	 M16.5,24v-9h3l0.8-3.8h-3.8V9.8c0-1.5,0.8-2.3,2.3-2.3h1.5V3.8c-0.8,0-1.7,0-3,0c-2.8,0-4.5,2.2-4.5,5.3v2.3h-3V15h3v9H16.5z"/>
</svg>
