<?xml version="1.0" encoding="utf-8"?>
<!-- Generator: Adobe Illustrator 19.2.1, SVG Export Plug-In . SVG Version: 6.00 Build 0)  -->
<!DOCTYPE svg PUBLIC "-//W3C//DTD SVG 1.1//EN" "http://www.w3.org/Graphics/SVG/1.1/DTD/svg11.dtd">
<svg version="1.1" id="Ebene_1" xmlns:sketch="http://www.bohemiancoding.com/sketch/ns"
	 xmlns="http://www.w3.org/2000/svg" xmlns:xlink="http://www.w3.org/1999/xlink" x="0px" y="0px" viewBox="0 0 24 24"
	 style="enable-background:new 0 0 24 24;" xml:space="preserve">
<style type="text/css">
	.st0{fill:#FFFFFF;}
</style>
<title></title>
<desc></desc>
<g id="slices" transform="translate(173.000000, 138.000000)">
</g>
<path class="st0" d="M1.2,0h21.6C23.5,0,24,0.5,24,1.2v21.6c0,0.7-0.5,1.2-1.2,1.2H1.2C0.5,24,0,23.5,0,22.8V1.2C0,0.5,0.5,0,1.2,0z
	 M17.2,11.4V10h-1v1.4h-1.5v1h1.5V14h1v-1.5h1.4v-1H17.2z M9.8,11.4V13c0,0,1.6,0,2.2,0c-0.4,1.1-0.9,1.6-2.2,1.6s-2.4-1.1-2.4-2.5
	s1.1-2.5,2.4-2.5c0.7,0,1.2,0.2,1.6,0.6c0.4-0.4,0.3-0.4,1.2-1.2C11.8,8.4,10.8,8,9.8,8c-2.3,0-4.2,1.9-4.2,4.2
	c0,2.3,1.9,4.2,4.2,4.2c3.4,0,4.3-3,4-5L9.8,11.4L9.8,11.4z"/>
</svg>
